<svg xmlns="http://www.w3.org/2000/svg" viewBox="0 0 705.55 123.15"><defs><style>.cls-1{fill:#e88d83;stroke:#e88d83;stroke-miterlimit:10;stroke-width:5px;}.cls-2{fill:#fff;}</style></defs><g id="Calque_2" data-name="Calque 2"><g id="Calque_17" data-name="Calque 17"><path class="cls-1" d="M18.33,85.84l-.26,8.31L2.54,93.72c.21-13.1.84-30.86.84-42.49C3.38,39,3,18.42,2.76,3.51L18.42,3l-.26,8.28C15,11.12,9.66,11,8.26,11c-.16,12.42.07,30.51.07,40.19,0,7.27-.45,22.63-.29,35.31C9.33,86.49,14.89,86.26,18.33,85.84Z"/><path class="cls-2" d="M92,100.2q1-9.28,1.5-20.85L94.67,54q.61-13.8.62-24.52c4,.07,7.41.1,10.2.1q3.12,0,9.07-.1,5.86,10.22,16.19,26.65T147.41,83.3l1.9-48.12c0-1.14.05-3.06.05-5.75q4.88.11,7.37.1,1,0,7.27-.1l-1.29,19L161.11,81l-.62,19.19q-5.4-.11-9.18-.11-3,0-9.75.11-2.59-4.62-3.94-6.85-2.13-3.42-9.08-14.1-4.56-7.05-11.41-18-5-8.09-8.61-14.1-.4,8.4-1.28,31.16-.36,9.27-.57,21.93-4.87-.11-7.06-.11Q97.9,100.09,92,100.2Z"/><path class="cls-2" d="M175.61,100.2q1.24-17.83,2-36.58T178.4,35l-.05-5.54,8.66.1,7.94-.1q-2.12,27.27-2.68,70.77l-7.63-.11Q182.72,100.09,175.61,100.2Z"/><path class="cls-2" d="M206.62,100.2q1.56-15.45,2.34-35.52t.78-35.25q6.22.11,10.42.1,4.51,0,8.84-.16c2.89-.1,5.93-.15,9.15-.15a76.88,76.88,0,0,1,10.75.67A20.28,20.28,0,0,1,257.33,33a15.8,15.8,0,0,1,5.46,5.91A17.38,17.38,0,0,1,264.58,47a22,22,0,0,1-.67,5.52,19.85,19.85,0,0,1-2,4.93,17.51,17.51,0,0,1-3.13,4,17.92,17.92,0,0,1-3.61,2.75A21.48,21.48,0,0,1,251.1,66q-2.28.72-6.11,1.76l3.52,6.85q1.71,3.25,6.48,11.71l5.24,9.18c.27.48,1.1,2.06,2.49,4.72q-6.35-.11-8.37-.11-2.5,0-8.79.11l-5.74-13.79c-1-2.11-2.21-4.6-3.63-7.47l-6.26-12.6c-.62-1.17-1.49-2.94-2.59-5.29a35.73,35.73,0,0,0,6.33.62,22,22,0,0,0,8.15-1.45,11.54,11.54,0,0,0,5.65-4.48,11.85,11.85,0,0,0,2-6.61,9.64,9.64,0,0,0-.85-4.05,7.52,7.52,0,0,0-2.88-3.16,11.59,11.59,0,0,0-4.82-1.66,43.87,43.87,0,0,0-5.6-.36c-1,0-2.46,0-4.25.05s-4,0-6.64,0l-.92,21.31-1,38.89-8.05-.11Q212.53,100.09,206.62,100.2Z"/><path class="cls-2" d="M264.32,100.2q5.4-9.54,12.66-23.59l13.65-26.19q6.38-12.12,10.58-21,6.74.11,9.54.1,4.92,0,9.64-.1l7.41,21.2,16.11,43.86,2.23,5.71-7.77-.11q-2.69,0-9.06.11-1.24-4.62-3.92-12.45t-4.55-12.7H293.56Q287.5,87.4,281.75,100.2l-8.45-.11Q270.9,100.09,264.32,100.2Zm33.85-35.93H318l-8.16-24L305.68,49Z"/><path class="cls-2" d="M353.29,100.2q1.54-15.61,2.48-34.77t1.08-36q5.29.11,8.83.1,2.38,0,7.63-.1-.69,9.33-1.27,21.25L371,71.47q-.47,8.93-.68,17.74l8.93.1q12.56,0,16.51-.08t7.78-.28q-.46,5.07-.82,11.25-13.65-.11-23.34-.11l-16.33.06Z"/><path class="cls-2" d="M401.31,100.2q5.38-9.54,12.65-23.59l13.65-26.19q6.38-12.12,10.58-21,6.74.11,9.54.1c3.28,0,6.5,0,9.64-.1l7.41,21.2,16.11,43.86,2.23,5.71-7.77-.11q-2.69,0-9.06.11-1.25-4.62-3.92-12.45t-4.55-12.7H430.54q-6.06,12.35-11.81,25.15l-8.45-.11Q407.9,100.09,401.31,100.2Zm33.84-35.93H455l-8.16-24L442.66,49Z"/><path class="cls-2" d="M490.64,100.2q.87-10.17,1.29-17.53.61-10.51,1.39-29.76.51-13.17.52-18.66V29.43q6.44.11,8.46.1,1.35,0,8-.1l-1.63,28L507.25,91l-.16,9.23-8-.11C498.11,100.09,495.29,100.13,490.64,100.2Zm18.82-37.46,11.77-14.46L532,34.66c.76-1,2-2.75,3.84-5.23l9.33.1,8.91-.1-23.87,28-4,5,3.27,4.67q.72,1,10.27,13.49l15.1,19.56-9.22-.11q-2.43,0-10.11.11L532.12,95c-.62-1-1.72-2.65-3.32-4.93L514.7,70Z"/><path class="cls-2" d="M561.88,100.2q.87-10.17,1.29-17.53.62-10.51,1.39-29.76.51-13.17.51-18.66V29.43q6.45.11,8.46.1,1.35,0,8-.1l-1.63,28L578.49,91l-.16,9.23-8-.11C569.35,100.09,566.53,100.13,561.88,100.2ZM580.7,62.74l11.77-14.46L603.2,34.66c.76-1,2-2.75,3.84-5.23l9.33.1,8.91-.1-23.87,28-4,5,3.27,4.67q.72,1,10.27,13.49L626,100.2l-9.22-.11c-1.63,0-5,0-10.11.11L603.36,95c-.62-1-1.73-2.65-3.32-4.93L585.94,70Z"/><path class="cls-2" d="M623.73,100.2q5.4-9.54,12.66-23.59L650,50.42q6.39-12.12,10.59-21,6.74.11,9.54.1,4.92,0,9.64-.1l7.41,21.2,16.11,43.86,2.23,5.71-7.77-.11c-1.79,0-4.82,0-9.06.11q-1.25-4.62-3.92-12.45t-4.55-12.7H653q-6.06,12.35-11.81,25.15l-8.46-.11Q630.32,100.09,623.73,100.2Zm33.85-35.93h19.87l-8.16-24L665.09,49Z"/><path class="cls-1" d="M35.79,38.64l.36-8.23,21.69.42c-.28,13-1.15,30.53-1.15,42,0,12.08.6,32.46.9,47.2l-21.88.52.36-8.19c4.42.15,11.88.23,13.83.23.22-12.29-.12-30.19-.12-39.76,0-7.19.61-22.39.38-34.94C48.36,38,40.59,38.22,35.79,38.64Z"/><path class="cls-2" d="M46.11,0,39.25,18h-9L39,0Z"/></g></g></svg>